PathFileType	4	(X/Y/Z)	Walk9.trc
DataRate	CameraRate	NumFrames	NumMarkers	Units	OrigDataRate	OrigDataStartFrame	OrigNumFrames
200.000000	200.000000	8	61	mm	200.000000	226	503
Frame#	Times		LFHD		RFHD		CLAV		LASI		RASI		RACR1		RUA1		RFA1		RWRR		RCAR		LACR1		LUA1		LWRU		RTH3		RTB4		LTH1		LTH3		LTH4		LTB1		LTB2		LTB4		LLFC		RTB1		LCAR		LFA1		RTB3		STRN		RMFC		RMT5		RToe		RLFC		LTH2		RTH2		RMT1		LBHD		LTB3		RTB2		LWRR		LElbow		RMMAL		RTH4		RWRU		RLMAL		RCAL		LPSI		RElbow		RTH1		RBHD		T10		RPSI		RBack		LMFC		C7		RElbowM		LElbowM		LLMAL		LCAL		LMT5		LToe		LMT1		LMMAL
			X1	Y1	Z1	X2	Y2	Z2	X3	Y3	Z3	X4	Y4	Z4	X5	Y5	Z5	X6	Y6	Z6	X7	Y7	Z7	X8	Y8	Z8	X9	Y9	Z9	X10	Y10	Z10	X11	Y11	Z11	X12	Y12	Z12	X13	Y13	Z13	X14	Y14	Z14	X15	Y15	Z15	X16	Y16	Z16	X17	Y17	Z17	X18	Y18	Z18	X19	Y19	Z19	X20	Y20	Z20	X21	Y21	Z21	X22	Y22	Z22	X23	Y23	Z23	X24	Y24	Z24	X25	Y25	Z25	X26	Y26	Z26	X27	Y27	Z27	X28	Y28	Z28	X29	Y29	Z29	X30	Y30	Z30	X31	Y31	Z31	X32	Y32	Z32	X33	Y33	Z33	X34	Y34	Z34	X35	Y35	Z35	X36	Y36	Z36	X37	Y37	Z37	X38	Y38	Z38	X39	Y39	Z39	X40	Y40	Z40	X41	Y41	Z41	X42	Y42	Z42	X43	Y43	Z43	X44	Y44	Z44	X45	Y45	Z45	X46	Y46	Z46	X47	Y47	Z47	X48	Y48	Z48	X49	Y49	Z49	X50	Y50	Z50	X51	Y51	Z51	X52	Y52	Z52	X53	Y53	Z53	X54	Y54	Z54	X55	Y55	Z55	X56	Y56	Z56	X57	Y57	Z57	X58	Y58	Z58	X59	Y59	Z59	X60	Y60	Z60	X61	Y61	Z61

226	1.13	-558.91	1569.9	-69.057	-562.37	1572.9	30.959	-601.23	1294.1	-18.726	-619.33	885.2	-111.68	-628.21	902.83	138	-661.55	1332.7	151.08	-651.05	1164.8	208.01	-532.82	912.89	243.34	-434.32	856.11	185.14	-395.12	791.76	220.89	-686.03	1337.5	-170.03	-752.1	1171.6	-215.61	-840.69	774.14	-237.79	-776.94	584.35	170.74	-909.69	259.58	103.79	-636.03	724.95	-184.98	-582.18	564.45	-152.07	-609.64	643.72	-170.44	-463.54	361.66	-63.004	-460.89	270.75	-117.61	-446.42	277.23	-58.665	-532.35	439.42	-126.31	-863.18	333.1	113.54	-896.85	723.01	-259.64	-856.06	899.87	-239.69	-956.98	189.02	90.595	-580.68	1158.8	-12.367	-859.67	448.77	16.71	-991.18	28.83	108.54	-903.04	22.111	61.076	-832.99	440.48	144.14	-558.67	667.58	-147.07	-696.94	651.66	164.62	-952.99	29.322	25.524	-700.37	1504.4	-95.457	-423.13	195.96	-53.202	-953.74	283.51	139.34	-904.42	792.12	-216.69	-821.77	1029.7	-215	-1033.4	132.62	18.817	-749.6	662.07	188.49	-467.76	813.93	227.22	-1060.6	122.52	96.765	-1113.1	123.04	50.09	-795.66	942.73	-53.346	-639.27	998.67	247.26	-719.46	741.62	209.77	-704.04	1514.2	48.193	-787.68	1188.7	0.46955	-797.75	943.59	46.467	-785.63	1276.1	67.094	-552.1	421.66	5.2186	-710.22	1398.4	-14.971	-679.18	986.87	179.12	-816.07	1013.9	-143.02	-437.49	71.909	-94.534	-479.81	27.184	-51.944	-321.52	59.584	-100.95	-244.82	98.046	-57.161	-294.65	82.482	-27.359	-430.57	94.269	-15.346
227	1.135	-551.28	1569.2	-69.532	-554.88	1572.2	30.484	-593.16	1293.3	-19.47	-610.96	884.51	-112.11	-619.7	901.79	137.44	-653.84	1331.7	150.36	-643.52	1163.8	207.24	-525.27	911.97	242.76	-426.66	855.24	184.66	-387.48	790.94	220.5	-677.91	1336.6	-170.86	-743.69	1170.6	-216.71	-832.37	773.21	-239.36	-768.05	583.14	170.62	-904.01	259.37	104.47	-627.53	724.57	-185.26	-573.61	564.24	-151.69	-601.12	643.41	-170.35	-456.17	360.38	-62.595	-454.37	269.41	-116.99	-439.98	275.82	-58.039	-524.03	438.93	-126.24	-856.15	331.99	114.05	-888.49	722.13	-261.43	-847.63	898.93	-241.26	-952.6	189.67	91.424	-572.39	1158.1	-13.091	-850.93	447.58	17.207	-990.56	29.235	108.85	-903.38	22.025	60.892	-824.15	439.17	144.38	-550.1	667.35	-147.28	-688.18	650.56	164.29	-953.01	29.322	25.643	-692.61	1503.6	-96.174	-417.65	194.37	-52.382	-947.6	284.19	139.98	-896.14	791.22	-218.48	-813.38	1028.7	-216.41	-1030.3	134.62	19.975	-740.83	660.96	188.13	-460.13	813.04	226.7	-1057.5	125.14	97.883	-1109.8	127.05	51.465	-787.22	942.19	-54.037	-631.79	997.68	246.53	-710.79	740.63	209.11	-696.44	1513.3	47.501	-779.5	1187.7	-0.40753	-789.26	942.74	45.815	-777.72	1275.1	66.074	-543.95	421.55	5.2177	-702.31	1397.5	-15.8	-671.56	985.83	178.34	-807.98	1012.9	-144.41	-433.28	70.738	-93.817	-476.46	27.219	-51.412	-317.72	56.449	-99.943	-240.5	93.463	-55.762	-290.67	78.737	-26.177	-426.27	92.84	-14.599
228	1.14	-543.65	1568.7	-70.011	-547.39	1571.5	30.004	-585.05	1292.6	-20.239	-602.66	883.93	-112.6	-611.17	900.75	136.81	-646.07	1330.8	149.63	-636.02	1162.9	206.47	-517.81	911.02	242.21	-419.11	854.29	184.23	-380	790.03	220.2	-669.77	1335.7	-171.7	-735.18	1169.6	-217.83	-823.79	772.25	-241.01	-758.85	581.81	170.48	-897.99	259.13	105.18	-619.11	724.25	-185.56	-565.01	564.15	-151.32	-592.62	643.2	-170.26	-448.86	359.17	-62.133	-447.98	268.15	-116.33	-433.73	274.46	-57.362	-515.61	438.59	-126.18	-848.75	330.8	114.6	-879.84	721.22	-263.31	-839	897.96	-242.9	-947.9	190.34	92.284	-564.08	1157.4	-13.848	-841.78	446.2	17.731	-989.85	29.744	109.17	-903.74	21.918	60.72	-814.88	437.74	144.63	-541.53	667.26	-147.57	-679.17	649.42	163.89	-952.98	29.383	25.777	-684.83	1502.8	-96.914	-412.51	192.8	-51.512	-941.09	284.86	140.63	-887.62	790.26	-220.38	-804.85	1027.8	-217.88	-1026.8	136.71	21.174	-731.83	659.75	187.72	-452.66	812.08	226.23	-1054	127.89	99.025	-1106.1	131.29	52.861	-778.83	941.74	-54.647	-624.36	996.73	245.79	-701.97	739.57	208.39	-688.83	1512.3	46.781	-771.31	1186.8	-1.2893	-780.8	941.95	45.255	-769.77	1274.2	65.039	-535.73	421.62	5.2157	-694.37	1396.7	-16.651	-663.98	984.82	177.55	-799.78	1011.8	-145.86	-429.57	69.639	-93.109	-473.72	27.425	-50.915	-314.48	53.165	-98.929	-236.7	88.492	-54.272	-287.22	74.715	-24.928	-422.46	91.446	-13.852
229	1.145	-536.02	1568.2	-70.494	-539.91	1570.9	29.518	-576.93	1291.9	-21.028	-594.43	883.48	-113.14	-602.63	899.72	136.11	-638.26	1329.9	148.89	-628.54	1162	205.67	-510.46	910.05	241.68	-411.69	853.26	183.87	-372.69	789.03	219.97	-661.6	1334.9	-172.57	-726.57	1168.6	-218.98	-814.94	771.29	-242.74	-749.33	580.36	170.29	-891.6	258.87	105.91	-610.77	724.02	-185.9	-556.4	564.18	-150.97	-584.17	643.08	-170.2	-441.62	358.05	-61.628	-441.7	266.99	-115.66	-427.66	273.17	-56.654	-507.13	438.4	-126.11	-840.97	329.54	115.18	-870.9	720.29	-265.29	-830.16	896.97	-244.6	-942.84	191.04	93.168	-555.76	1156.8	-14.633	-832.18	444.64	18.271	-989.05	30.383	109.5	-904.13	21.788	60.567	-805.17	436.17	144.87	-532.99	667.29	-147.96	-669.94	648.26	163.44	-952.89	29.525	25.931	-677.03	1502.1	-97.676	-407.66	191.29	-50.62	-934.19	285.55	141.29	-878.85	789.26	-222.35	-796.19	1026.8	-219.41	-1022.9	138.89	22.401	-722.59	658.45	187.27	-445.34	811.07	225.81	-1050.2	130.77	100.18	-1101.9	135.75	54.271	-770.52	941.38	-55.17	-616.99	995.81	245.04	-693	738.45	207.62	-681.22	1511.4	46.035	-763.11	1186	-2.1702	-772.36	941.22	44.795	-761.79	1273.4	63.996	-527.45	421.87	5.2093	-686.39	1395.9	-17.52	-656.44	983.85	176.74	-791.49	1010.7	-147.36	-426.27	68.642	-92.435	-471.49	27.794	-50.477	-311.72	49.826	-97.939	-233.34	83.263	-52.723	-284.25	70.523	-23.644	-419.08	90.126	-13.131
230	1.15	-528.39	1567.8	-70.982	-532.43	1570.4	29.024	-568.79	1291.3	-21.835	-586.28	883.17	-113.73	-594.11	898.7	135.34	-630.39	1329.1	148.14	-621.09	1161.1	204.87	-503.2	909.07	241.18	-404.4	852.14	183.55	-365.56	787.95	219.84	-653.42	1334.1	-173.43	-717.88	1167.6	-220.14	-805.83	770.33	-244.53	-739.49	578.8	170.07	-884.82	258.59	106.65	-602.52	723.87	-186.28	-547.81	564.32	-150.65	-575.76	643.07	-170.18	-434.45	357.03	-61.092	-435.5	265.97	-115	-421.75	271.99	-55.936	-498.6	438.36	-126.06	-832.78	328.2	115.78	-861.67	719.34	-267.37	-821.11	895.97	-246.37	-937.41	191.78	94.068	-547.44	1156.2	-15.443	-822.11	442.87	18.816	-988.13	31.178	109.84	-904.52	21.635	60.437	-795.02	434.48	145.11	-524.49	667.43	-148.46	-660.47	647.07	162.91	-952.71	29.771	26.108	-669.21	1501.4	-98.457	-403.05	189.86	-49.734	-926.87	286.23	141.93	-869.82	788.22	-224.42	-787.39	1025.8	-220.97	-1018.7	141.18	23.646	-713.11	657.07	186.78	-438.19	810	225.44	-1046	133.79	101.35	-1097.3	140.46	55.686	-762.29	941.11	-55.598	-609.67	994.95	244.28	-683.88	737.27	206.79	-673.61	1510.6	45.264	-754.92	1185.4	-3.0439	-763.98	940.54	44.438	-753.78	1272.6	62.955	-519.16	422.28	5.1939	-678.37	1395.3	-18.404	-648.94	982.94	175.91	-783.09	1009.7	-148.9	-423.32	67.765	-91.818	-469.66	28.302	-50.114	-309.37	46.52	-97.008	-230.37	77.906	-51.148	-281.7	66.267	-22.355	-416.08	88.912	-12.461
231	1.155	-520.76	1567.6	-71.477	-524.96	1569.9	28.522	-560.63	1290.8	-22.654	-578.22	883	-114.37	-585.61	897.71	134.51	-622.47	1328.4	147.4	-613.65	1160.3	204.06	-496.06	908.07	240.69	-397.25	850.94	183.29	-358.6	786.78	219.78	-645.21	1333.4	-174.31	-709.09	1166.7	-221.31	-796.45	769.38	-246.39	-729.32	577.13	169.8	-877.64	258.31	107.39	-594.38	723.81	-186.72	-539.25	564.57	-150.38	-567.43	643.15	-170.22	-427.38	356.13	-60.542	-429.38	265.09	-114.38	-415.99	270.92	-55.229	-490.05	438.46	-126.02	-824.17	326.81	116.39	-852.14	718.39	-269.52	-811.86	894.97	-248.18	-931.59	192.57	94.97	-539.13	1155.7	-16.273	-811.55	440.89	19.352	-987.06	32.161	110.18	-904.89	21.458	60.34	-784.41	432.68	145.34	-516.04	667.69	-149.06	-650.78	645.87	162.31	-952.4	30.146	26.315	-661.38	1500.9	-99.256	-398.69	188.55	-48.882	-919.12	286.93	142.56	-860.55	787.17	-226.55	-778.47	1024.8	-222.58	-1014	143.59	24.895	-703.41	655.6	186.23	-431.2	808.89	225.12	-1041.4	136.96	102.52	-1092.1	145.41	57.098	-754.15	940.93	-55.928	-602.41	994.15	243.5	-674.63	736.03	205.92	-665.99	1509.8	44.47	-746.74	1184.8	-3.9033	-755.65	939.92	44.186	-745.75	1272	61.927	-510.91	422.86	5.1645	-670.31	1394.7	-19.298	-641.46	982.09	175.06	-774.59	1008.6	-150.48	-420.69	67.016	-91.273	-468.18	28.922	-49.838	-307.36	43.325	-96.166	-227.77	72.549	-49.576	-279.52	62.045	-21.094	-413.41	87.826	-11.861
232	1.16	-513.13	1567.4	-71.98	-517.48	1569.6	28.01	-552.46	1290.4	-23.48	-570.25	882.99	-115.06	-577.17	896.75	133.62	-614.49	1327.7	146.65	-606.21	1159.6	203.24	-489.01	907.08	240.22	-390.23	849.67	183.07	-351.83	785.54	219.81	-636.99	1332.8	-175.18	-700.22	1165.8	-222.48	-786.8	768.45	-248.3	-718.82	575.36	169.49	-870.04	258.04	108.13	-586.33	723.84	-187.22	-530.76	564.93	-150.18	-559.19	643.33	-170.32	-420.4	355.35	-59.995	-423.34	264.34	-113.81	-410.4	269.97	-54.554	-481.5	438.71	-126	-815.13	325.37	117	-842.31	717.45	-271.76	-802.4	893.98	-250.04	-925.34	193.4	95.864	-530.83	1155.2	-17.117	-800.47	438.7	19.866	-985.82	33.362	110.52	-905.21	21.26	60.284	-773.37	430.77	145.57	-507.68	668.05	-149.75	-640.87	644.67	161.65	-951.92	30.678	26.56	-653.54	1500.4	-100.07	-394.53	187.35	-48.085	-910.91	287.64	143.17	-851.02	786.11	-228.76	-769.41	1023.9	-224.22	-1008.9	146.12	26.134	-693.48	654.06	185.64	-424.39	807.73	224.85	-1036.4	140.29	103.68	-1086.4	150.61	58.495	-746.11	940.82	-56.157	-595.19	993.43	242.71	-665.26	734.75	205	-658.36	1509	43.655	-738.58	1184.4	-4.7413	-747.4	939.36	44.04	-737.69	1271.5	60.925	-502.73	423.57	5.1155	-662.22	1394.2	-20.195	-634.02	981.33	174.18	-765.98	1007.6	-152.08	-418.32	66.389	-90.809	-466.97	29.624	-49.653	-305.66	40.308	-95.439	-225.49	67.3	-48.033	-277.67	57.944	-19.885	-411.04	86.879	-11.343
233	1.165	-505.5	1567.3	-72.491	-510.01	1569.3	27.486	-544.29	1290	-24.307	-562.35	883.13	-115.78	-568.8	895.82	132.69	-606.46	1327.1	145.9	-598.78	1159	202.41	-482.08	906.1	239.77	-383.37	848.33	182.91	-345.26	784.22	219.92	-628.75	1332.3	-176.05	-691.27	1165	-223.64	-776.88	767.56	-250.25	-708.01	573.51	169.13	-862.01	257.78	108.84	-578.37	723.97	-187.78	-522.36	565.38	-150.07	-551.04	643.61	-170.49	-413.56	354.66	-59.468	-417.42	263.71	-113.31	-404.98	269.13	-53.927	-472.99	439.07	-126.01	-805.66	323.89	117.6	-832.18	716.53	-274.07	-792.74	893.02	-251.93	-918.67	194.31	96.734	-522.57	1154.8	-17.969	-788.86	436.32	20.341	-984.37	34.817	110.87	-905.44	21.045	60.281	-761.88	428.77	145.78	-499.39	668.5	-150.54	-630.75	643.48	160.92	-951.23	31.396	26.85	-645.69	1499.9	-100.89	-390.59	186.26	-47.362	-902.24	288.37	143.76	-841.23	785.05	-231.03	-760.23	1023	-225.89	-1003.4	148.79	27.349	-683.33	652.45	185	-417.76	806.53	224.62	-1030.9	143.78	104.82	-1080.2	156.04	59.867	-738.18	940.79	-56.285	-588.02	992.8	241.91	-655.78	733.43	204.05	-650.73	1508.3	42.822	-730.46	1184	-5.5515	-739.23	938.85	43.994	-729.63	1271.1	59.961	-494.65	424.39	5.0413	-654.1	1393.8	-21.087	-626.62	980.67	173.28	-757.26	1006.6	-153.7	-416.22	65.874	-90.426	-465.99	30.376	-49.557	-304.23	37.518	-94.847	-223.51	62.251	-46.552	-276.12	54.037	-18.753	-408.95	86.071	-10.911
